<?xml version="1.0" encoding="UTF-8"?>
<svg version="1.1" xmlns="http://www.w3.org/2000/svg" width="1536" height="1024">
<path d="M0 0 C506.88 0 1013.76 0 1536 0 C1536 337.92 1536 675.84 1536 1024 C1029.12 1024 522.24 1024 0 1024 C0 686.08 0 348.16 0 0 Z " fill="#FEFEFE" transform="translate(0,0)"/>
<path d="M0 0 C2.84441273 1.42220636 3.14014078 3.16905531 4.40625 6.0703125 C4.89375732 7.17503906 5.38126465 8.27976563 5.88354492 9.41796875 C6.27659317 10.31974854 6.27659317 10.31974854 6.67758179 11.23974609 C8.10995262 14.52321267 9.56576079 17.79627806 11.01953125 21.0703125 C11.4894323 22.13031464 11.4894323 22.13031464 11.96882629 23.21173096 C18.7881164 38.56015608 25.91589615 53.77249549 33 69 C33.79978271 70.71993164 33.79978271 70.71993164 34.61572266 72.47460938 C39.99188803 84.00110793 45.64768977 95.34245284 51.67724609 106.54150391 C52.57696837 108.2137452 53.47299212 109.88798056 54.36572266 111.56396484 C65.6818333 132.80676455 78.04171836 153.28337606 91.375 173.3125 C91.8372699 174.00824127 92.29953979 174.70398254 92.77581787 175.42080688 C98.08130077 183.38941517 103.51959363 191.17817535 109.40478516 198.73120117 C111 201 111 201 111 203 C111.66 203 112.32 203 113 203 C113.26176025 202.44256104 113.52352051 201.88512207 113.79321289 201.31079102 C115.13439459 198.74265733 116.67440259 196.42003532 118.30859375 194.02734375 C118.96754639 193.05539062 119.62649902 192.0834375 120.30541992 191.08203125 C121.00900635 190.04433594 121.71259277 189.00664062 122.4375 187.9375 C129.42894382 177.52467821 135.94213417 166.9783896 142 156 C142.47937012 155.13600586 142.95874023 154.27201172 143.45263672 153.38183594 C167.26690381 112.35799859 167.26690381 112.35799859 186 69 C186.66 69 187.32 69 188 69 C188.32701904 69.74491699 188.32701904 69.74491699 188.66064453 70.50488281 C201.56811742 99.69094155 215.83855344 128.53248915 231.50585938 156.33691406 C233.26550213 159.4732185 235.00064997 162.62276856 236.734375 165.7734375 C245.93646378 182.49961534 245.93646378 182.49961534 255.70068359 198.90087891 C256.68393493 200.48937852 257.66263122 202.08069882 258.63916016 203.67333984 C265.60002429 215.02050192 272.61957334 226.25901539 280.49536133 236.99951172 C284 241.80736758 284 241.80736758 284 244 C288.23506269 240.06469674 291.39109496 235.82097906 294.5625 231 C295.08134766 230.21455811 295.60019531 229.42911621 296.13476562 228.61987305 C309.96157541 207.41473397 321.35116859 184.69152564 332.375 161.9375 C332.94589355 160.76123047 333.51678711 159.58496094 334.10498047 158.37304688 C337.96753424 150.33821158 341.55085717 142.21881909 345 134 C347.83255184 136.46261549 349.1153853 139.02936025 350.64453125 142.43359375 C351.14919922 143.54323486 351.65386719 144.65287598 352.17382812 145.79614258 C352.9849707 147.5986145 352.9849707 147.5986145 353.8125 149.4375 C354.97978274 151.99491113 356.15481502 154.54871051 357.33203125 157.1015625 C357.63384308 157.75645157 357.93565491 158.41134064 358.24661255 159.08607483 C366.83862177 177.66494439 376.31154661 195.72238534 386.54199219 213.44677734 C388.30436057 216.53298776 390.00266686 219.65104152 391.69750977 222.7746582 C403.49504603 244.44465069 417.06253029 265.36091131 432 285 C437.17757827 280.37110537 440.75349864 274.76855331 444.5625 269 C445.26922852 267.93273682 445.97595703 266.86547363 446.70410156 265.76586914 C460.98945608 243.97763451 473.33698696 220.76650442 484 197 C486.35506564 199.35506564 487.04112307 201.27993852 488.2578125 204.37890625 C488.7101123 205.51094482 489.16241211 206.6429834 489.62841797 207.80932617 C489.87090271 208.41892181 490.11338745 209.02851746 490.36322021 209.65658569 C514.01576425 268.83342781 546.51819087 328.11075779 590 375 C590.74636719 375.84691406 591.49273438 376.69382812 592.26171875 377.56640625 C597.25374482 382.97099646 602.35470898 386.56257317 608.88671875 389.81420898 C614.38816008 392.57664364 619.50468522 395.77360934 624.625 399.1875 C625.38296875 399.68685059 626.1409375 400.18620117 626.921875 400.70068359 C631.06142699 403.48727717 634.60982414 406.3351261 638 410 C630.07776033 408.10753747 622.3207616 405.91045765 614.5625 403.4375 C554.44783089 384.63916701 492.70384826 371.86662476 430 366 C429.09470047 365.91223801 428.18940094 365.82447601 427.25666809 365.73405457 C420.04741343 365.07598293 412.90513199 364.84028093 405.66796875 364.83203125 C404.52591476 364.82779648 403.38386078 364.82356171 402.2071991 364.81919861 C398.53392801 364.80936974 394.86078184 364.80926937 391.1875 364.8125 C389.92891174 364.81310425 388.67032349 364.8137085 387.37359619 364.81433105 C368.49039299 364.83898079 349.80719261 365.20022185 331 367 C329.57507145 367.13063338 328.15010213 367.26082246 326.72509766 367.390625 C263.79107038 373.18473027 202.71643994 385.7978177 141.4765625 401.1171875 C140.77205837 401.29340385 140.06755424 401.46962021 139.34170151 401.65117645 C132.39099295 403.39051919 125.44153477 405.1346016 118.49641228 406.89612865 C101.39133028 411.23346844 84.24808156 415.27238991 67 419 C65.46539269 419.33579674 63.93087577 419.67200709 62.39648438 420.00878906 C5.51460765 432.44175778 -52.58740958 439.70786094 -110.6875 443.1875 C-111.87520996 443.25928467 -113.06291992 443.33106934 -114.28662109 443.4050293 C-140.75551033 444.8535667 -167.24746685 445.21067662 -193.75 445.1875 C-194.51939533 445.18708584 -195.28879066 445.18667168 -196.08150101 445.18624496 C-255.38483711 445.14649582 -314.38592102 441.33410351 -373 432 C-373.83625916 431.86764954 -374.67251831 431.73529907 -375.53411865 431.59893799 C-460.17611564 418.152552 -539.02458837 391.49501698 -617.70959473 358.08886719 C-624.12841874 355.36504467 -630.55681002 352.6657712 -637 350 C-633.78546878 348.92848959 -632.79671891 349.05255171 -629.58984375 349.75 C-628.69458984 349.94303711 -627.79933594 350.13607422 -626.87695312 350.33496094 C-625.90693359 350.55442383 -624.93691406 350.77388672 -623.9375 351 C-622.93267578 351.22204102 -621.92785156 351.44408203 -620.89257812 351.67285156 C-611.75396352 353.73704386 -602.71564358 356.14892735 -593.69506836 358.67578125 C-590.80349824 359.47985904 -587.90556325 360.24833754 -585 361 C-584.3002002 361.20149658 -583.60040039 361.40299316 -582.87939453 361.6105957 C-580.8817814 362.15562509 -580.8817814 362.15562509 -578 362 C-575.79871715 360.23309492 -574.51816021 358.89727816 -572.875 356.6875 C-572.41617432 356.10790527 -571.95734863 355.52831055 -571.48461914 354.93115234 C-569.95729192 352.97676714 -568.47567378 350.9936348 -567 349 C-566.47035645 348.29214355 -565.94071289 347.58428711 -565.39501953 346.85498047 C-532.88597001 303.22263224 -506.49849593 254.79924989 -486.0078125 204.45703125 C-484.70812962 201.28842454 -483.36170252 198.14239042 -482 195 C-480.18338211 197.72492683 -478.90399834 200.26482644 -477.56640625 203.2421875 C-477.08824463 204.29776855 -476.61008301 205.35334961 -476.11743164 206.44091797 C-475.6043042 207.57416504 -475.09117676 208.70741211 -474.5625 209.875 C-462.54699114 236.07455594 -448.90110568 261.05032889 -430 283 C-425.92348004 279.32525244 -423.05179003 274.95464088 -420 270.4375 C-419.42894531 269.59614502 -418.85789062 268.75479004 -418.26953125 267.88793945 C-389.6620434 225.49375803 -364.8700336 180.13478772 -345 133 C-342.14518114 136.6421489 -340.36627761 140.45246243 -338.5625 144.6875 C-324.62462486 176.61910589 -308.41008743 207.82724822 -288.60546875 236.54394531 C-285 241.80273703 -285 241.80273703 -285 244 C-284.34 244 -283.68 244 -283 244 C-282.72019287 243.4124292 -282.44038574 242.8248584 -282.15209961 242.21948242 C-281.08234396 240.15863296 -279.92617515 238.36590909 -278.56640625 236.48828125 C-278.08848633 235.8226416 -277.61056641 235.15700195 -277.11816406 234.47119141 C-276.34811035 233.40263916 -276.34811035 233.40263916 -275.5625 232.3125 C-259.96217739 210.37951199 -246.17404368 187.14569391 -233.35058594 163.49072266 C-232.38070012 161.70207928 -231.4069324 159.9155388 -230.43066406 158.13037109 C-215.82436597 131.39959003 -201.85386425 104.24065868 -189.47583008 76.39990234 C-189.03907959 75.42617676 -188.6023291 74.45245117 -188.15234375 73.44921875 C-187.78101318 72.60705811 -187.40968262 71.76489746 -187.02709961 70.8972168 C-186 69 -186 69 -184 68 C-183.608125 68.91652344 -183.21625 69.83304687 -182.8125 70.77734375 C-163.66876254 114.94111373 -141.65068084 159.29426948 -113.14453125 198.21484375 C-112 200 -112 200 -112 202 C-72.81628366 165.26526593 -48.66358288 104.97038863 -26 57 C-25.56330994 56.07604431 -25.56330994 56.07604431 -25.11779785 55.13342285 C-16.49472672 36.86871157 -8.21239358 18.45198696 0 0 Z " fill="#00823C" transform="translate(767,150)"/>
<path d="M0 0 C1.90357773 0.00031723 1.90357773 0.00031723 3.84561157 0.00064087 C26.52761549 0.03803687 48.77834654 1.35021104 71.25 4.375 C72.65363613 4.55883059 74.05728177 4.74258866 75.4609375 4.92626953 C97.61198603 7.87026365 119.46735448 12.44371685 141.25 17.375 C141.95253906 17.53377625 142.65507813 17.69255249 143.37890625 17.85614014 C243.46469075 40.58969075 243.46469075 40.58969075 264.25 61.375 C256.02642504 60.85640547 248.20539105 59.45464595 240.17578125 57.64453125 C238.94576385 57.3734404 237.71574646 57.10234955 236.44845581 56.82304382 C233.83353828 56.24661956 231.21920146 55.66807169 228.6055603 55.0859375 C221.81693257 53.57514992 215.02178099 52.09409098 208.2265625 50.61328125 C207.22952207 50.39579161 207.22952207 50.39579161 206.2123394 50.17390823 C191.2756875 46.91832781 176.31856524 43.9577011 161.25 41.375 C160.01362793 41.1594043 158.77725586 40.94380859 157.50341797 40.72167969 C137.15842749 37.1980006 116.7690148 34.60556309 96.25 32.375 C94.70022461 32.20291016 94.70022461 32.20291016 93.11914062 32.02734375 C9.29521428 22.75919794 -72.2277194 38.83056232 -166.6875 68.3125 C-167.39048973 68.53310215 -168.09347946 68.7537043 -168.81777191 68.98099136 C-173.025549 70.30159119 -177.23311302 71.62286904 -181.44062805 72.94430351 C-226.93976621 87.2337779 -272.6804794 100.31578294 -319.75 108.375 C-320.66809448 108.53335327 -321.58618896 108.69170654 -322.53210449 108.8548584 C-346.97606465 113.05879151 -371.44958714 116.70650256 -396.125 119.25 C-397.51529922 119.39625824 -397.51529922 119.39625824 -398.9336853 119.54547119 C-430.05140618 122.76923052 -461.2237099 123.71844598 -492.48803711 123.63574219 C-496.8174677 123.62435778 -501.14665198 123.63114801 -505.47607422 123.64261246 C-538.55223697 123.71693687 -571.43457983 122.14873732 -604.375 119.125 C-605.55568054 119.01762512 -606.73636108 118.91025024 -607.95281982 118.79962158 C-651.96606089 114.76257683 -695.3431214 107.56421076 -738.75 99.375 C-739.71117737 99.19366516 -740.67235474 99.01233032 -741.66265869 98.82550049 C-782.47262645 91.07124089 -822.63647218 79.29515205 -861.75 65.375 C-862.43564026 65.13199158 -863.12128052 64.88898315 -863.82769775 64.63861084 C-883.9203278 57.50615443 -903.46084249 49.4674925 -922.75 40.375 C-923.70890137 39.92382812 -924.66780273 39.47265625 -925.65576172 39.0078125 C-940.01260301 32.1921209 -953.5751587 24.25459523 -966.75 15.375 C-966.42 14.715 -966.09 14.055 -965.75 13.375 C-964.8825415 13.82830688 -964.8825415 13.82830688 -963.99755859 14.29077148 C-909.40859848 42.26397751 -844.0216829 56.85477715 -783.96917725 66.99993896 C-782.43737639 67.25882717 -780.90585769 67.51938848 -779.37457275 67.78131104 C-746.97997073 73.31971472 -714.46541089 77.28605568 -681.75 80.375 C-680.792005 80.46801392 -679.83401001 80.56102783 -678.84698486 80.65686035 C-649.58432441 83.48845824 -620.30523586 83.65304715 -590.9316864 83.68418121 C-588.96062613 83.68636596 -586.98956656 83.68937061 -585.01850891 83.69326019 C-563.23304507 83.73606151 -541.49076032 83.47995938 -519.7265625 82.46484375 C-518.86289251 82.4250622 -517.99922253 82.38528065 -517.10938072 82.34429359 C-500.86273976 81.5777922 -484.64195712 80.33609219 -468.47265625 78.56640625 C-467.6135817 78.4735585 -466.75450714 78.38071075 -465.86940002 78.28504944 C-391.02087995 70.08639931 -317.39941924 56.16748865 -244.59780884 37.04711914 C-197.26485927 24.62644534 -149.38462161 13.3059029 -100.75 7.375 C-99.12577443 7.17251606 -97.50159102 6.96969381 -95.87744141 6.76660156 C-91.2825499 6.19411036 -86.68620514 5.63460315 -82.08874512 5.08312988 C-80.29516928 4.8679134 -78.50177874 4.65114453 -76.70861816 4.43249512 C-51.19608205 1.34321538 -25.69451597 -0.04016727 0 0 Z " fill="#01813B" transform="translate(1172.75,527.625)"/>
<path d="M0 0 C5.07144203 4.24798623 9.84049913 8.68090921 14.5 13.375 C15.49543823 14.37551392 15.49543823 14.37551392 16.51098633 15.39624023 C20.85788014 19.78929195 25.04093893 24.25263031 29 29 C42.87470817 45.50314668 57.7787047 60.86960057 73 76.125 C73.68003082 76.80770966 74.36006165 77.49041931 75.06069946 78.19381714 C85.23977128 88.40816997 85.23977128 88.40816997 96 98 C97.19232444 99.04434555 98.38241842 100.09124287 99.5703125 101.140625 C107.83369851 108.38547388 116.24930244 115.35201328 125 122 C125.71140137 122.54269531 126.42280273 123.08539063 127.15576172 123.64453125 C138.7138787 132.42523148 150.6070036 140.4454945 163 148 C160.25734306 149.48407743 157.80222818 150.38655287 154.74609375 150.98632812 C153.9055545 151.15453064 153.06501526 151.32273315 152.19900513 151.49603271 C151.28770844 151.67265442 150.37641174 151.84927612 149.4375 152.03125 C147.44773647 152.42797246 145.4579912 152.82478651 143.46826172 153.22167969 C142.41636658 153.4293396 141.36447144 153.63699951 140.28070068 153.85095215 C123.09159141 157.25161424 105.9497213 160.81471561 88.875 164.75 C85.29950694 165.57303739 81.72400369 166.39603036 78.1484375 167.21875 C77.21702942 167.43319763 76.28562134 167.64764526 75.32598877 167.86859131 C62.08469453 170.90966595 48.8200692 173.84723804 35.55728912 176.79286194 C33.54441303 177.24013124 31.53167231 177.68800417 29.51898193 178.1361084 C3.59451858 183.90630961 -22.32214546 189.6524888 -48.4375 194.5 C-49.45870941 194.69009644 -50.47991882 194.88019287 -51.53207397 195.0760498 C-97.78085592 203.66755305 -144.04004493 209.93164212 -191 213 C-191.788302 213.05220703 -192.576604 213.10441406 -193.38879395 213.15820312 C-218.94151524 214.83897899 -244.39648288 215.26617011 -270 215 C-267.6311283 212.44084585 -265.07225121 210.60860638 -262.16015625 208.69921875 C-261.18981445 208.05903809 -260.21947266 207.41885742 -259.21972656 206.75927734 C-258.1778418 206.07559082 -257.13595703 205.3919043 -256.0625 204.6875 C-245.73626269 197.85846039 -235.55088014 190.86041926 -225.43994141 183.71777344 C-222.95986262 181.97174239 -220.47159342 180.23804164 -217.98046875 178.5078125 C-190.52854195 159.42884295 -163.8051742 139.25581756 -138 118 C-136.20842294 116.54155659 -134.41675498 115.08322483 -132.625 113.625 C-127.98245027 109.82895506 -123.40082952 105.96604477 -118.83203125 102.08203125 C-115.4618766 99.2217818 -112.0599159 96.40758766 -108.625 93.625 C-98.61152805 85.46533408 -88.92909296 76.9160109 -79.40625 68.19140625 C-77.31434877 66.28628191 -75.20036615 64.41560939 -73.0625 62.5625 C-69.65310892 59.60116031 -66.32223416 56.55828711 -63 53.5 C-55.68398619 46.77211197 -48.1808516 40.28261734 -40.62548828 33.82666016 C-37.48654689 31.14218108 -34.35942831 28.44576078 -31.25390625 25.72265625 C-24.03815668 19.40230536 -16.7141143 13.30036391 -9.12109375 7.4375 C-6.02322567 5.0181387 -3.00618633 2.53152533 0 0 Z " fill="#FDFDFD" transform="translate(767,338)"/>
<path d="M0 0 C2 0 2 0 3.26953125 1.1875 C5.19358493 3.44765419 7.10625003 5.71422166 9 8 C9.51159668 8.61665527 10.02319336 9.23331055 10.55029297 9.86865234 C12.28933719 11.97022694 14.02099587 14.07765902 15.75 16.1875 C16.3169458 16.87650391 16.8838916 17.56550781 17.46801758 18.27539062 C20.27118533 21.72108129 22.84667302 25.09519932 25 29 C11.05097709 52.05935116 -4.44115847 73.32978205 -21.49853516 94.16210938 C-22.84196561 95.80655563 -24.17738431 97.45753952 -25.51171875 99.109375 C-29.82372725 104.43730173 -34.26898927 109.59914911 -38.8828125 114.66796875 C-40.78051169 116.75823889 -42.64733415 118.86986115 -44.5 121 C-50.68480335 128.08259739 -56.90904105 135.05359151 -63.6640625 141.6015625 C-65.55029747 143.5382653 -67.30265812 145.4996906 -69.05859375 147.55078125 C-73.44940506 152.60750875 -78.17277614 157.32301914 -82.9152832 162.0456543 C-84.43491668 163.5599258 -85.94912517 165.0794743 -87.46289062 166.59960938 C-92.80320214 171.94319066 -98.2448129 177.10082751 -104 182 C-104.33 182.33 -104.66 182.66 -105 183 C-107.1982752 183.11407411 -109.40036873 183.15482434 -111.6015625 183.16796875 C-112.63841438 183.17425293 -112.63841438 183.17425293 -113.69621277 183.18066406 C-116.00586361 183.19061801 -118.31533076 183.19041317 -120.625 183.1875 C-121.42231537 183.18722809 -122.21963074 183.18695618 -123.04110718 183.18667603 C-152.46863039 183.14099984 -181.75599858 181.19981509 -211 178 C-203.38439634 170.20504335 -194.79535546 163.54747084 -186.13647461 156.95996094 C-181.00912001 153.0443341 -176.01337128 148.97531063 -171.01928711 144.8918457 C-166.6582145 141.33130591 -162.25531658 137.83280557 -157.8125 134.375 C-152.11111243 129.92975478 -146.57969989 125.31078961 -141.08203125 120.6171875 C-138.25316987 118.20503476 -135.38424878 115.84580002 -132.5 113.5 C-126.82096859 108.87447007 -121.23407178 104.14532956 -115.65283203 99.40283203 C-114.02971933 98.02522412 -112.4040696 96.65068243 -110.77734375 95.27734375 C-103.4092148 89.0563889 -96.07759585 82.79400615 -88.76171875 76.51171875 C-87.0195026 75.01673505 -85.27567336 73.52365734 -83.53125 72.03125 C-76.87211207 66.33293457 -70.23412556 60.6112143 -63.61669922 54.86450195 C-59.32413626 51.13933392 -55.01021954 47.44009765 -50.6875 43.75 C-46.67652499 40.32559051 -42.71344895 36.86273272 -38.8125 33.3125 C-35.47772886 30.28287132 -32.06712361 27.39391908 -28.5625 24.5625 C-23.80224283 20.71278428 -19.29161654 16.64962964 -14.7890625 12.50390625 C-11.0032813 9.10518671 -7.07864278 5.9075747 -3.1171875 2.71484375 C-1.13793226 1.17273924 -1.13793226 1.17273924 0 0 Z " fill="#FCFDFC" transform="translate(586,370)"/>
<path d="M0 0 C2.9773424 1.90233736 5.18797571 4.35599312 7.51953125 6.97265625 C8.00010986 7.50407227 8.48068848 8.03548828 8.97583008 8.58300781 C12.94734338 13.0181193 16.66553023 17.62369071 20.20703125 22.41015625 C14.85253876 34.4362891 3.51648685 45.27323193 -4.79296875 55.41015625 C-5.37127441 56.1175293 -5.94958008 56.82490234 -6.54541016 57.55371094 C-14.02245135 66.69805588 -21.59111448 75.751611 -29.31201172 84.69091797 C-30.84367989 86.46902665 -32.36807989 88.2531376 -33.890625 90.0390625 C-39.11090634 96.15964728 -44.37566466 102.22483361 -49.78125 108.18359375 C-51.64031544 110.24120016 -53.47225233 112.31862388 -55.29296875 114.41015625 C-59.40392152 119.1262259 -63.56576893 123.79792079 -67.79296875 128.41015625 C-68.41703613 129.22492432 -68.41703613 129.22492432 -69.05371094 130.05615234 C-71.64139038 132.07064844 -73.40969449 131.58161735 -76.63671875 131.2734375 C-78.52003906 131.09482178 -78.52003906 131.09482178 -80.44140625 130.91259766 C-89.07655473 129.9420442 -97.68611869 128.7903556 -106.29296875 127.59765625 C-107.26431763 127.46454041 -108.2356665 127.33142456 -109.2364502 127.1942749 C-123.15947334 125.28334501 -137.01676409 123.21153758 -150.79296875 120.41015625 C-150.79296875 119.42015625 -150.79296875 118.43015625 -150.79296875 117.41015625 C-148.84732824 115.84069346 -146.9341632 114.47111911 -144.85546875 113.09765625 C-139.09905129 109.14829598 -133.65077792 104.94714929 -128.29296875 100.47265625 C-123.14671257 96.17727394 -117.97102169 91.9480094 -112.66796875 87.84765625 C-107.06986081 83.50575989 -101.72264388 78.92179411 -96.40014648 74.24804688 C-91.72489179 70.16333154 -86.91139839 66.30699442 -82.00097656 62.51049805 C-77.11878582 58.71638175 -72.43183573 54.72252337 -67.75708008 50.67724609 C-63.75632906 47.22008455 -59.68897389 43.87143043 -55.5390625 40.59375 C-52.69253073 38.33029159 -49.87494837 36.0340494 -47.05908203 33.73266602 C-39.40695822 27.48352144 -31.67671514 21.36575903 -23.79296875 15.41015625 C-22.97586426 14.79221191 -22.15875977 14.17426758 -21.31689453 13.53759766 C-18.58189335 11.47142634 -15.84426347 9.40879601 -13.10546875 7.34765625 C-12.21891602 6.67943848 -11.33236328 6.0112207 -10.41894531 5.32275391 C-9.58975586 4.70062012 -8.76056641 4.07848633 -7.90625 3.4375 C-7.16157471 2.87796631 -6.41689941 2.31843262 -5.6496582 1.74194336 C-2.20833346 -0.72648879 -2.20833346 -0.72648879 0 0 Z " fill="#FCFDFC" transform="translate(429.79296875,414.58984375)"/>
<path d="M0 0 C1.375 1.36328125 1.375 1.36328125 3 3.3125 C5.84002365 6.66302377 8.75815152 9.90923929 11.75 13.125 C16.01696008 17.79864463 19.94410645 22.65712094 23.81884766 27.65771484 C30.7516433 36.58524381 38.11829079 45.13757475 45.734375 53.48828125 C46.9964375 54.88742985 48.25173405 56.29306663 49.47949219 57.72241211 C63.44676423 73.96129784 78.81551116 88.382956 96.60839844 100.28540039 C97.26356445 100.72489014 97.91873047 101.16437988 98.59375 101.6171875 C99.47063477 102.19895752 99.47063477 102.19895752 100.36523438 102.79248047 C102.08459743 104.06248789 103.50503658 105.47647809 105 107 C98.25984387 107.28868399 91.51951391 107.57302133 84.77905273 107.85449219 C82.49125117 107.95052217 80.20348949 108.04750739 77.91577148 108.14550781 C71.50733284 108.41969554 65.09878832 108.67202179 58.68838501 108.89572144 C56.37534689 108.98544084 54.06729238 109.10535003 51.7565918 109.24047852 C45.95622578 109.47574624 42.0518292 109.47576423 37.64306641 105.44604492 C37.16272949 104.9482251 36.68239258 104.45040527 36.1875 103.9375 C35.64528809 103.42872314 35.10307617 102.91994629 34.54443359 102.39575195 C33.47758578 101.39281301 32.42190603 100.37782168 31.37939453 99.34960938 C29.69936201 97.70585366 27.92602177 96.19677958 26.125 94.6875 C14.85224602 84.75788267 3.62553618 74.51670806 -6.16796875 63.109375 C-8.15311587 60.82370454 -10.2003983 58.60298622 -12.25 56.375 C-20.05991088 47.72402179 -27.07146328 38.36288746 -34 29 C-30.26071737 19.59712554 -17.82831222 12.14719395 -9.91015625 6.19140625 C-7.98774603 4.74379265 -6.0980446 3.25156892 -4.24609375 1.71484375 C-2 0 -2 0 0 0 Z " fill="#FBFDFC" transform="translate(954,368)"/>
<path d="M0 0 C3.12638859 1.45109271 5.78276479 3.20340626 8.546875 5.2578125 C9.39121094 5.88300781 10.23554688 6.50820313 11.10546875 7.15234375 C12.41451172 8.12880859 12.41451172 8.12880859 13.75 9.125 C14.63816406 9.78371094 15.52632813 10.44242187 16.44140625 11.12109375 C18.62967096 12.74464499 20.81576909 14.37102826 23 16 C21.35271523 20.4506247 19.05390305 23.59689645 15.9375 27.125 C14.93278017 28.28575462 13.9288847 29.44722325 12.92578125 30.609375 C12.42771973 31.18365234 11.9296582 31.75792969 11.41650391 32.34960938 C9.43889172 34.65375594 7.5316732 37.0119987 5.625 39.375 C-2.72359282 49.61693441 -11.41095664 59.61396533 -20.44921875 69.25390625 C-22.12166761 71.05441398 -23.75181061 72.89537243 -25.33203125 74.77734375 C-26.06808594 75.61394531 -26.80414063 76.45054687 -27.5625 77.3125 C-28.18253906 78.05113281 -28.80257812 78.78976562 -29.44140625 79.55078125 C-36.62052572 83.6171222 -48.08652571 78.81401551 -55.77929688 77.04370117 C-57.89009461 76.55903408 -60.00337746 76.08657008 -62.1171875 75.61523438 C-63.471517 75.30800861 -64.82568977 75.0000909 -66.1796875 74.69140625 C-67.39382324 74.41498291 -68.60795898 74.13855957 -69.85888672 73.85375977 C-72.49906823 73.13615408 -74.6346895 72.34410989 -77 71 C-76.32795532 70.37339478 -76.32795532 70.37339478 -75.64233398 69.73413086 C-73.57285496 67.80320328 -71.50517147 65.87036294 -69.4375 63.9375 C-68.73302734 63.28072266 -68.02855469 62.62394531 -67.30273438 61.94726562 C-63.97019902 58.82973255 -60.6741042 55.69377186 -57.47265625 52.44140625 C-55.14609273 50.0907589 -52.75270682 47.89027081 -50.23828125 45.7421875 C-43.9309597 40.29861227 -38.21596432 34.22340087 -32.39648438 28.26953125 C-27.011046 22.82002538 -21.49969152 17.76682204 -15.49511719 13.00488281 C-12.20979404 10.36505173 -9.09126614 7.5595427 -5.97265625 4.7265625 C-4.04866807 3.04259661 -2.0650704 1.50606924 0 0 Z " fill="#FBFDFC" transform="translate(290,449)"/>
<path d="M0 0 C4.87318993 -0.79813552 9.1529429 -1.06142775 14 0 C17.95743245 3.66591166 20.13588033 8.11228391 22.5 12.875 C23.151253 14.09382906 23.8074774 15.31001535 24.46875 16.5234375 C25.74863111 18.88546528 26.9957387 21.25671839 28.23046875 23.64355469 C30.63779663 28.20977208 33.27992321 32.61469928 36 37 C41.02264543 29.75845828 45.44126521 22.2092439 49.8125 14.5625 C50.49907777 13.36768267 51.18592513 12.17302021 51.87304688 10.97851562 C55.04248113 5.54672713 55.04248113 5.54672713 58 0 C62.95 0 67.9 0 73 0 C74.12540681 6.75244088 74.12540681 6.75244088 74.29711914 10.29516602 C74.3570681 11.48415245 74.3570681 11.48415245 74.41822815 12.69715881 C74.45681442 13.54088547 74.4954007 14.38461212 74.53515625 15.25390625 C74.59962196 16.5981089 74.59962196 16.5981089 74.66539001 17.96946716 C74.75538507 19.86977781 74.84352437 21.77017713 74.92993164 23.6706543 C75.05970245 26.50147423 75.19836789 29.33175559 75.33789062 32.16210938 C75.93644812 44.78303916 76.10943838 57.36594698 76 70 C71.05 70 66.1 70 61 70 C60.34 55.48 59.68 40.96 59 26 C55.7 31.94 52.4 37.88 49 44 C40.32142857 58.67857143 40.32142857 58.67857143 39 60 C36.15234375 60.36645508 36.15234375 60.36645508 33 60 C31.12890625 57.97143555 31.12890625 57.97143555 29.5625 55.13671875 C28.97726562 54.10353516 28.39203125 53.07035156 27.7890625 52.00585938 C27.19867187 50.91080078 26.60828125 49.81574219 26 48.6875 C25.40960937 47.63498047 24.81921875 46.58246094 24.2109375 45.49804688 C22.44910428 42.34498633 20.72067227 39.17568138 19 36 C17.85442724 33.90220143 16.70861115 31.80453572 15.5625 29.70703125 C14.70801343 28.13819503 13.85371821 26.56925447 13 25 C12.97494385 25.93682617 12.9498877 26.87365234 12.92407227 27.83886719 C12.82794626 31.37264211 12.72878614 34.9063066 12.62768555 38.43994141 C12.58483569 39.95846317 12.54313499 41.47701787 12.50268555 42.99560547 C12.26109565 52.03285727 11.85055331 60.99414139 11 70 C6.05 70 1.1 70 -4 70 C-3.56004276 53.44371423 -2.96292381 36.90975182 -2 20.375 C-1.95820618 19.63807922 -1.91641235 18.90115845 -1.87335205 18.14190674 C-1.75312013 16.03964128 -1.62760085 13.93776722 -1.5 11.8359375 C-1.4278125 10.63501465 -1.355625 9.4340918 -1.28125 8.19677734 C-1.03436636 5.39061897 -0.6206248 2.7443253 0 0 Z " fill="#037E38" transform="translate(859,700)"/>
<path d="M0 0 C8.6625 -0.12375 8.6625 -0.12375 17.5 -0.25 C20.20993164 -0.30462402 20.20993164 -0.30462402 22.97460938 -0.36035156 C24.43097755 -0.37205057 25.88735897 -0.38223952 27.34375 -0.390625 C28.44831543 -0.4213208 28.44831543 -0.4213208 29.57519531 -0.45263672 C36.00872261 -0.45689733 41.13397494 1.52680849 46.0234375 5.74609375 C51.0502414 12.03686279 52.82802924 16.8961728 52 25 C50.675975 32.09205468 46.63407646 35.7971607 41 40 C40.01 40.66 39.02 41.32 38 42 C38.41902588 42.46220947 38.83805176 42.92441895 39.26977539 43.40063477 C43.98881568 48.68875307 48.26134774 54.21462468 52.4375 59.9375 C53.39172852 61.23010742 53.39172852 61.23010742 54.36523438 62.54882812 C59 68.86624765 59 68.86624765 59 70 C45.87882648 71.29769848 45.87882648 71.29769848 40 70 C36.31086821 66.95220958 34.95105112 63.29123155 33 59 C31.64047221 57.12390305 30.22389061 55.28765266 28.75 53.5 C28.10546875 52.7059375 27.4609375 51.911875 26.796875 51.09375 C26.20390625 50.4028125 25.6109375 49.711875 25 49 C24.35804687 48.14921875 24.35804687 48.14921875 23.703125 47.28125 C21.40986747 45.34174566 21.40986747 45.34174566 15 45 C15 53.25 15 61.5 15 70 C10.05 70 5.1 70 0 70 C0 46.9 0 23.8 0 0 Z " fill="#017F3A" transform="translate(1129,700)"/>
<path d="M0 0 C14 0 14 0 16.9921875 2.32421875 C17.61351562 3.43410156 18.23484375 4.54398438 18.875 5.6875 C19.65101552 6.96752735 20.43408399 8.2432949 21.22265625 9.515625 C21.85905029 10.57813477 21.85905029 10.57813477 22.50830078 11.66210938 C25.47112166 16.3056401 28.93697135 20.59018204 32.3125 24.9375 C33.664586 26.6952118 35.01492093 28.45427232 36.36328125 30.21484375 C37.23400269 31.34587524 37.23400269 31.34587524 38.12231445 32.49975586 C40.47001204 35.62584752 42.72765354 38.81871495 45 42 C45.33 28.14 45.66 14.28 46 0 C50.95 0 55.9 0 61 0 C61 23.1 61 46.2 61 70 C48 70 48 70 45.03515625 67.82421875 C44.38417969 66.78910156 43.73320312 65.75398437 43.0625 64.6875 C42.26554704 63.49527456 41.46728683 62.3039223 40.66796875 61.11328125 C40.24950684 60.4579541 39.83104492 59.80262695 39.39990234 59.12744141 C36.73792808 55.08202046 33.77400548 51.25204833 30.875 47.375 C25.88494817 40.606415 20.94605853 33.80083047 16 27 C15.67 41.19 15.34 55.38 15 70 C10.05 70 5.1 70 0 70 C0 46.9 0 23.8 0 0 Z " fill="#017F3A" transform="translate(425,700)"/>
<path d="M0 0 C13 0 13 0 16.83984375 3.26953125 C17.91546704 4.75357041 18.94655686 6.27062796 19.9375 7.8125 C20.5032373 8.61260498 21.06897461 9.41270996 21.65185547 10.23706055 C22.84797954 11.93148734 24.02707644 13.63804626 25.18994141 15.35546875 C27.62441622 18.91228439 30.19325183 22.36104163 32.76782227 25.81713867 C35.02781769 28.85373829 37.2567431 31.91242672 39.48291016 34.97387695 C41.2676948 37.35751515 43.13979416 39.6747427 45 42 C45.33 28.14 45.66 14.28 46 0 C50.95 0 55.9 0 61 0 C61 23.1 61 46.2 61 70 C48 70 48 70 44.01953125 66.5546875 C42.90712259 65.0254376 41.83921304 63.46305498 40.8125 61.875 C40.23282471 61.05692871 39.65314941 60.23885742 39.0559082 59.39599609 C37.88509714 57.73579669 36.73230761 56.06272952 35.59863281 54.37695312 C33.76045831 51.64383355 31.84157607 48.97817085 29.90698242 46.31298828 C28.78045635 44.75366871 27.67628186 43.17826647 26.57421875 41.6015625 C22.80887736 36.33351279 18.88520935 31.18027913 15 26 C14.67 40.52 14.34 55.04 14 70 C9.38 70 4.76 70 0 70 C0 46.9 0 23.8 0 0 Z " fill="#027E38" transform="translate(989,700)"/>
<path d="M0 0 C4.86344999 3.99758089 9.26161615 8.22412138 13.5 12.875 C14.02980469 13.44863281 14.55960938 14.02226562 15.10546875 14.61328125 C17.88552279 17.63566446 20.6081131 20.6980502 23.2890625 23.80859375 C37.78733847 40.42036771 53.980995 56.31396063 73.41015625 67.046875 C73.93480469 67.36140625 74.45945312 67.6759375 75 68 C75 68.33 75 68.66 75 69 C65.45686131 68.30980433 56.07488771 66.8209584 46.6395874 65.28042603 C39.48697745 64.11666314 32.36514532 62.98067799 25.1484375 62.28515625 C14.21443909 61.22633202 6.74706914 60.47428444 -1 52 C-2.6363157 50.55167526 -4.2825259 49.11446683 -5.9375 47.6875 C-14.3287654 40.02189434 -22.31877038 32.23514675 -29 23 C-25.53519002 17.9942368 -21.10316573 14.94216398 -16.1875 11.5 C-15.40568359 10.94441406 -14.62386719 10.38882812 -13.81835938 9.81640625 C-12.28124394 8.72488735 -10.74207245 7.63625706 -9.20068359 6.55078125 C-6.12308936 4.3820572 -3.06173388 2.19104053 0 0 Z " fill="#FBFDFC" transform="translate(1117,417)"/>
<path d="M0 0 C1.58206057 0.00667536 3.16410534 0.0186375 4.74609375 0.03515625 C5.55240234 0.03966797 6.35871094 0.04417969 7.18945312 0.04882812 C9.18753131 0.06065107 11.18557158 0.07858711 13.18359375 0.09765625 C16.62842528 8.23387776 19.89010221 16.42224954 23.01171875 24.6875 C23.44619324 25.83505264 23.88066772 26.98260529 24.32830811 28.16493225 C25.23686769 30.56698909 26.14434714 32.96945474 27.05078125 35.37231445 C28.43968612 39.05129393 29.8349411 42.72782528 31.23046875 46.40429688 C32.11627241 48.74855172 33.00170247 51.09294778 33.88671875 53.4375 C34.30334778 54.53335922 34.71997681 55.62921844 35.14923096 56.75828552 C35.53343201 57.78027542 35.91763306 58.80226532 36.31347656 59.85522461 C36.65147278 60.7494664 36.98946899 61.64370819 37.33770752 62.56504822 C38.18359375 65.09765625 38.18359375 65.09765625 39.18359375 70.09765625 C33.90359375 70.09765625 28.62359375 70.09765625 23.18359375 70.09765625 C21.53359375 65.47765625 19.88359375 60.85765625 18.18359375 56.09765625 C8.94359375 56.09765625 -0.29640625 56.09765625 -9.81640625 56.09765625 C-11.46640625 60.71765625 -13.11640625 65.33765625 -14.81640625 70.09765625 C-20.09640625 70.09765625 -25.37640625 70.09765625 -30.81640625 70.09765625 C-28.79855832 63.07470764 -26.45550959 56.3050988 -23.76171875 49.515625 C-23.37829315 48.53958817 -22.99486755 47.56355133 -22.599823 46.55793762 C-21.38411235 43.465514 -20.16294338 40.37528236 -18.94140625 37.28515625 C-17.73087325 34.21191135 -16.52146771 31.13822456 -15.31219482 28.06448364 C-14.53574696 26.09187711 -13.75845977 24.11960073 -12.98028564 22.14767456 C-10.49967996 15.85784346 -8.06376816 9.5537888 -5.68701172 3.22387695 C-4.22423051 -0.34857441 -4.26653856 0.10917448 0 0 Z " fill="#027E39" transform="translate(1225.81640625,699.90234375)"/>
<path d="M0 0 C4.95 0 9.9 0 15 0 C15 9.24 15 18.48 15 28 C24.9 28 34.8 28 45 28 C45 18.76 45 9.52 45 0 C49.95 0 54.9 0 60 0 C60 23.1 60 46.2 60 70 C55.05 70 50.1 70 45 70 C45 60.1 45 50.2 45 40 C35.1 40 25.2 40 15 40 C15 49.9 15 59.8 15 70 C10.05 70 5.1 70 0 70 C0 46.9 0 23.8 0 0 Z " fill="#017F3B" transform="translate(535,700)"/>
<path d="M0 0 C4.04427713 1.57224825 6.50576342 4.45170109 9.3125 7.625 C9.79960449 8.16624512 10.28670898 8.70749023 10.78857422 9.26513672 C13.94431232 12.78069382 17.06431754 16.32808336 20.16210938 19.89477539 C33.35951611 35.01183679 47.17216666 50.10654354 63.3828125 62.0390625 C65.47174146 63.60420031 67.19499087 65.13959417 69 67 C60.7875286 65.5938035 52.95071377 63.2733617 45 60.8125 C37.21582095 58.41320523 29.44645565 56.06448583 21.5390625 54.09765625 C20.37246094 53.80463623 19.20585938 53.51161621 18.00390625 53.2097168 C15.81600021 52.6692218 13.62338774 52.14729831 11.42578125 51.64770508 C4.33929642 49.88470071 0.05530157 47.23736526 -5 42 C-5.75410156 41.28972656 -6.50820312 40.57945312 -7.28515625 39.84765625 C-13.2332778 33.87338911 -18.80797039 27.6457979 -24 21 C-22.57614017 17.60246849 -20.92448457 15.87174992 -18.0078125 13.65234375 C-17.22019531 13.04712891 -16.43257812 12.44191406 -15.62109375 11.81835938 C-14.79738281 11.19767578 -13.97367188 10.57699219 -13.125 9.9375 C-12.30902344 9.31294922 -11.49304687 8.68839844 -10.65234375 8.04492188 C-7.11684611 5.34283273 -3.56117398 2.66812261 0 0 Z " fill="#FBFDFC" transform="translate(1252,451)"/>
<path d="M0 0 C13.86 0 27.72 0 42 0 C42 4.29 42 8.58 42 13 C33.09 13 24.18 13 15 13 C15 17.95 15 22.9 15 28 C22.92 28 30.84 28 39 28 C39 31.96 39 35.92 39 40 C31.08 40 23.16 40 15 40 C15 45.61 15 51.22 15 57 C24.57 57 34.14 57 44 57 C44 61.29 44 65.58 44 70 C29.48 70 14.96 70 0 70 C0 46.9 0 23.8 0 0 Z " fill="#00823D" transform="translate(231,700)"/>
<path d="M0 0 C13.86 0 27.72 0 42 0 C42 4.29 42 8.58 42 13 C33.09 13 24.18 13 15 13 C15 17.95 15 22.9 15 28 C22.92 28 30.84 28 39 28 C39 31.96 39 35.92 39 40 C31.08 40 23.16 40 15 40 C15 45.61 15 51.22 15 57 C24.57 57 34.14 57 44 57 C44 61.29 44 65.58 44 70 C29.48 70 14.96 70 0 70 C0 46.9 0 23.8 0 0 Z " fill="#007E38" transform="translate(1069,700)"/>
<path d="M0 0 C13.86 0 27.72 0 42 0 C42 4.29 42 8.58 42 13 C33.09 13 24.18 13 15 13 C15 17.95 15 22.9 15 28 C22.92 28 30.84 28 39 28 C39 31.96 39 35.92 39 40 C31.08 40 23.16 40 15 40 C15 45.61 15 51.22 15 57 C24.57 57 34.14 57 44 57 C44 61.29 44 65.58 44 70 C29.48 70 14.96 70 0 70 C0 46.9 0 23.8 0 0 Z " fill="#00823E" transform="translate(365,700)"/>
<path d="M0 0 C5.61 0 11.22 0 17 0 C22.66666667 17 28.33333333 34 34 51 C36.69937832 44.41683565 39.17572926 37.79476057 41.453125 31.0546875 C41.91075226 29.71085495 41.91075226 29.71085495 42.37762451 28.33987427 C43.33758027 25.51909115 44.29385489 22.69707676 45.25 19.875 C45.90600535 17.94522932 46.56225323 16.01554106 47.21875 14.0859375 C48.81530077 9.39157168 50.40855483 4.69609901 52 0 C57.61 0 63.22 0 69 0 C63.00521104 16.45378246 56.95200901 32.88080508 50.70581055 49.2409668 C48.07387464 56.13894993 45.50491619 63.05481473 43 70 C37.06 70 31.12 70 25 70 C22.03308154 61.90767592 19.06827998 53.81458577 16.10714149 45.72014523 C14.73191473 41.96114294 13.35578279 38.20247735 11.97753906 34.44458008 C10.64616843 30.81438112 9.31723198 27.18329947 7.98994064 23.55160713 C7.48448695 22.16990363 6.978174 20.78851414 6.47096634 19.40745354 C5.75778929 17.4651006 5.04774481 15.52162835 4.33837891 13.57788086 C3.73215195 11.92241493 3.73215195 11.92241493 3.11367798 10.23350525 C1.95256892 6.86228635 0.97953748 3.42838117 0 0 Z " fill="#037D38" transform="translate(284,700)"/>
<path d="M0 0 C1 1 1 1 1.09765625 4.16015625 C1.08605469 5.44792969 1.07445312 6.73570312 1.0625 8.0625 C1.05347656 9.35285156 1.04445313 10.64320313 1.03515625 11.97265625 C1.02355469 12.97167969 1.01195312 13.97070312 1 15 C0.39671875 14.72285156 -0.2065625 14.44570313 -0.828125 14.16015625 C-1.62734375 13.79792969 -2.4265625 13.43570313 -3.25 13.0625 C-4.03890625 12.70285156 -4.8278125 12.34320312 -5.640625 11.97265625 C-11.88764332 9.39731261 -18.68740557 8.87371789 -25.125 11.0625 C-27.31818049 12.97921101 -27.31818049 12.97921101 -27.6875 16.4375 C-27.36858852 20.15593629 -27.36858852 20.15593629 -24.453125 22.04296875 C-20.72663816 24.15492566 -17.10439458 25.52056821 -13.0625 26.875 C-5.64743181 29.51896291 -0.60749876 32.21492116 3.9375 38.8125 C6.05140262 45.15420785 5.58866963 51.08632794 2.97265625 57.21875 C-0.35916906 63.320406 -6.58223507 66.86074502 -13 69 C-23.69677265 69.71703641 -32.97841487 69.15895783 -43 65 C-44 64 -44 64 -44.09765625 60.83984375 C-44.08025391 58.90818359 -44.08025391 58.90818359 -44.0625 56.9375 C-44.05347656 55.64714844 -44.04445313 54.35679687 -44.03515625 53.02734375 C-44.02355469 52.02832031 -44.01195312 51.02929688 -44 50 C-42.75283203 50.52400391 -42.75283203 50.52400391 -41.48046875 51.05859375 C-40.39378906 51.51363281 -39.30710937 51.96867188 -38.1875 52.4375 C-37.10855469 52.88996094 -36.02960938 53.34242188 -34.91796875 53.80859375 C-28.06759234 56.60560152 -21.27697932 57.33300854 -14.3125 54.5 C-13.549375 54.005 -12.78625 53.51 -12 53 C-12 49.7 -12 46.4 -12 43 C-14.8773496 41.80995055 -17.75774396 40.74209557 -20.70703125 39.73828125 C-37.27250778 34.06338734 -37.27250778 34.06338734 -42.171875 26.09375 C-44.44825942 21.06174233 -44.39868656 16.29027025 -43 11 C-40.48977656 4.71825859 -36.59503759 1.39732793 -30.75 -1.75 C-21.2743981 -5.03487532 -9.03371169 -4.032907 0 0 Z " fill="#037E38" transform="translate(1376,702)"/>
<path d="M0 0 C1 1 1 1 1.09765625 4.16015625 C1.08605469 5.44792969 1.07445312 6.73570312 1.0625 8.0625 C1.05347656 9.35285156 1.04445313 10.64320313 1.03515625 11.97265625 C1.02355469 12.97167969 1.01195312 13.97070312 1 15 C0.39671875 14.72285156 -0.2065625 14.44570313 -0.828125 14.16015625 C-1.62734375 13.79792969 -2.4265625 13.43570313 -3.25 13.0625 C-4.03890625 12.70285156 -4.8278125 12.34320312 -5.640625 11.97265625 C-11.84001004 9.4169495 -18.70993851 8.79140598 -25.0625 11.125 C-27.22127601 12.93947895 -27.22127601 12.93947895 -28.0625 15.9375 C-28.29511972 19.00656159 -28.29511972 19.00656159 -26.51171875 21.01171875 C-23.16568334 23.66044662 -19.78915127 24.63063927 -15.75 25.875 C-7.67490293 28.5652774 -0.91284842 31.16381096 3.5 38.875 C5.91396885 44.51832273 5.70370083 49.43433678 3.75 55.1875 C0.80155589 62.13061031 -3.20187964 65.1523274 -10 68 C-20.10419012 71.36806337 -32.55392145 69.32366463 -42 65 C-43 64 -43 64 -43.09765625 61.05859375 C-43.08605469 59.86363281 -43.07445312 58.66867187 -43.0625 57.4375 C-43.05347656 56.23996094 -43.04445313 55.04242187 -43.03515625 53.80859375 C-43.02355469 52.88175781 -43.01195312 51.95492187 -43 51 C-40.23629538 51.90937348 -37.48134531 52.81687037 -34.76171875 53.8515625 C-27.99148109 56.3760579 -21.75320809 57.37987666 -14.9375 54.5 C-13.968125 54.005 -12.99875 53.51 -12 53 C-11.9071875 51.1128125 -11.9071875 51.1128125 -11.8125 49.1875 C-11.77769531 48.47980469 -11.74289062 47.77210938 -11.70703125 47.04296875 C-12.08890573 44.38003068 -12.97279054 43.72513234 -15 42 C-16.87297581 41.08289714 -16.87297581 41.08289714 -18.94921875 40.421875 C-19.71161865 40.15173584 -20.47401855 39.88159668 -21.25952148 39.60327148 C-22.46137085 39.1809021 -22.46137085 39.1809021 -23.6875 38.75 C-31.98515081 35.67402625 -37.85623336 32.51916455 -43 25.125 C-44.83705003 19.38421867 -44.87575888 14.29561592 -42.375 8.75 C-39.26368777 3.27800681 -34.6648701 -0.46879389 -28.6640625 -2.49609375 C-19.11836977 -4.30165733 -8.90054968 -3.97345968 0 0 Z " fill="#037D37" transform="translate(806,702)"/>
<path d="M0 0 C1 1 1 1 1.09765625 4.16015625 C1.08605469 5.44792969 1.07445312 6.73570312 1.0625 8.0625 C1.05347656 9.35285156 1.04445312 10.64320313 1.03515625 11.97265625 C1.02355469 12.97167969 1.01195312 13.97070312 1 15 C0.40832031 14.72285156 -0.18335938 14.44570313 -0.79296875 14.16015625 C-8.2263337 10.75269206 -14.74900203 9.05471382 -23 10 C-26.28904021 11.31055892 -26.28904021 11.31055892 -28 14 C-28.57354142 17.57216696 -28.57354142 17.57216696 -27 21 C-24.22819293 22.81233539 -22.05888427 23.86331491 -19 25 C-0.17128099 32.1008551 -0.17128099 32.1008551 4.0859375 41.48046875 C6.05778856 46.91569923 5.32944871 51.78560523 3.16796875 57.01171875 C0.01679046 62.37609918 -5.5497115 66.69331464 -11.484375 68.5625 C-22.09255855 70.40740149 -32.1439024 69.43791736 -42 65 C-43 64 -43 64 -43.09765625 61.05859375 C-43.08605469 59.86363281 -43.07445312 58.66867187 -43.0625 57.4375 C-43.05347656 56.23996094 -43.04445312 55.04242187 -43.03515625 53.80859375 C-43.02355469 52.88175781 -43.01195312 51.95492187 -43 51 C-42.02160156 51.3609375 -41.04320312 51.721875 -40.03515625 52.09375 C-30.78321356 55.40923616 -22.59646142 58.31840764 -13 54 C-11.43569752 50.87139505 -11.64372716 48.44397075 -12 45 C-15.71534725 41.25612801 -19.91074687 39.79238726 -24.8125 38.1875 C-32.88479337 35.33807838 -38.58066326 32.15823501 -43 24.5625 C-44.90722315 17.76801752 -44.68333875 12.92876841 -41.2578125 6.8203125 C-32.44226858 -5.93758646 -12.93513509 -5.77461388 0 0 Z " fill="#027D37" transform="translate(210,702)"/>
<path d="M0 0 C4.95 0 9.9 0 15 0 C15 18.81 15 37.62 15 57 C24.57 57 34.14 57 44 57 C44 65 44 65 43 70 C28.81 70 14.62 70 0 70 C0 46.9 0 23.8 0 0 Z " fill="#017D38" transform="translate(650,700)"/>
<path d="M0 0 C4.95 0 9.9 0 15 0 C15 18.81 15 37.62 15 57 C24.24 57 33.48 57 43 57 C43 61.29 43 65.58 43 70 C28.81 70 14.62 70 0 70 C0 46.9 0 23.8 0 0 Z " fill="#007E38" transform="translate(708,700)"/>
<path d="M0 0 C4.62 0 9.24 0 14 0 C14 18.81 14 37.62 14 57 C23.24 57 32.48 57 42 57 C42 61.29 42 65.58 42 70 C28.14 70 14.28 70 0 70 C0 46.9 0 23.8 0 0 Z " fill="#017D36" transform="translate(1279,700)"/>
<path d="M0 0 C4.95 0 9.9 0 15 0 C15 23.1 15 46.2 15 70 C10.05 70 5.1 70 0 70 C0 46.9 0 23.8 0 0 Z " fill="#00823D" transform="translate(954,700)"/>
<path d="M0 0 C4.95 0 9.9 0 15 0 C15 23.1 15 46.2 15 70 C10.05 70 5.1 70 0 70 C0 46.9 0 23.8 0 0 Z " fill="#00823F" transform="translate(615,700)"/>
<path d="M0 0 C13.86 0 27.72 0 42 0 C42 3.96 42 7.92 42 12 C33.09 12 24.18 12 15 12 C15 11.67 15 11.34 15 11 C23.25 11 31.5 11 40 11 C40 8.03 40 5.06 40 2 C27.46 1.67 14.92 1.34 2 1 C2 23.11 2 45.22 2 68 C15.2 68 28.4 68 42 68 C42 65.03 42 62.06 42 59 C41.22809326 59.01047363 40.45618652 59.02094727 39.66088867 59.03173828 C36.16979212 59.07326454 32.67874751 59.09931557 29.1875 59.125 C27.97255859 59.14175781 26.75761719 59.15851562 25.50585938 59.17578125 C24.34248047 59.18222656 23.17910156 59.18867187 21.98046875 59.1953125 C20.37014771 59.21102295 20.37014771 59.21102295 18.72729492 59.22705078 C16 59 16 59 13 57 C12.75182074 54.06616664 12.67356119 51.36367315 12.75 48.4375 C12.75515625 47.64408203 12.7603125 46.85066406 12.765625 46.03320312 C12.84595509 40.15404491 12.84595509 40.15404491 14 39 C15.78071246 38.91273777 17.5648314 38.89300959 19.34765625 38.90234375 C20.42724609 38.90556641 21.50683594 38.90878906 22.61914062 38.91210938 C24.32360352 38.92467773 24.32360352 38.92467773 26.0625 38.9375 C27.77276367 38.94426758 27.77276367 38.94426758 29.51757812 38.95117188 C32.34510351 38.96300253 35.1725264 38.9794859 38 39 C38 35.7 38 32.4 38 29 C30.41 29 22.82 29 15 29 C15 28.67 15 28.34 15 28 C22.92 28 30.84 28 39 28 C39 31.96 39 35.92 39 40 C31.08 40 23.16 40 15 40 C15 45.61 15 51.22 15 57 C24.57 57 34.14 57 44 57 C44 61.29 44 65.58 44 70 C29.48 70 14.96 70 0 70 C0 46.9 0 23.8 0 0 Z " fill="#066E23" transform="translate(365,700)"/>
<path d="M0 0 C13.86 0 27.72 0 42 0 C42 4.29 42 8.58 42 13 C33.09 13 24.18 13 15 13 C15 17.95 15 22.9 15 28 C22.92 28 30.84 28 39 28 C39 31.96 39 35.92 39 40 C31.08 40 23.16 40 15 40 C15 45.61 15 51.22 15 57 C24.57 57 34.14 57 44 57 C44 61.29 44 65.58 44 70 C29.48 70 14.96 70 0 70 C0 46.9 0 23.8 0 0 Z M1 1 C1 23.11 1 45.22 1 68 C14.53 68 28.06 68 42 68 C42 65.03 42 62.06 42 59 C40.88757935 58.96241577 40.88757935 58.96241577 39.75268555 58.92407227 C36.39744672 58.80813868 33.04249056 58.68540015 29.6875 58.5625 C28.52025391 58.52318359 27.35300781 58.48386719 26.15039062 58.44335938 C24.47299805 58.38051758 24.47299805 58.38051758 22.76171875 58.31640625 C21.73006592 58.27974854 20.69841309 58.24309082 19.63549805 58.20532227 C17 58 17 58 14 57 C14 51.39 14 45.78 14 40 C21.92 39.67 29.84 39.34 38 39 C38 35.7 38 32.4 38 29 C30.08 28.67 22.16 28.34 14 28 C14 22.72 14 17.44 14 12 C22.58 11.67 31.16 11.34 40 11 C40 7.7 40 4.4 40 1 C27.13 1 14.26 1 1 1 Z " fill="#066B1C" transform="translate(231,700)"/>
<path d="M0 0 C3.5578125 -0.12375 3.5578125 -0.12375 7.1875 -0.25 C7.92508545 -0.28641602 8.6626709 -0.32283203 9.42260742 -0.36035156 C13.02641563 -0.42069892 14.87966133 -0.07776224 17.92578125 1.890625 C20.79840132 4.81193355 20.96789529 5.60832259 21.3125 9.8125 C21.28232024 13.13227327 21.0060988 13.99044521 19.125 16.9375 C15.42523426 20.5284491 12.26773519 20.12073458 7.375 20.0625 C4.94125 20.041875 2.5075 20.02125 0 20 C0 13.4 0 6.8 0 0 Z " fill="#FCFDFD" transform="translate(1144,712)"/>
<path d="M0 0 C0.66 0 1.32 0 2 0 C4.97 8.91 7.94 17.82 11 27 C4.4 27 -2.2 27 -9 27 C-6.03 18.09 -3.06 9.18 0 0 Z " fill="#F7FCFA" transform="translate(1229,715)"/>
<path d="M0 0 C4.95 0 9.9 0 15 0 C15 23.1 15 46.2 15 70 C10.05 70 5.1 70 0 70 C0 46.9 0 23.8 0 0 Z M2 1 C2 23.11 2 45.22 2 68 C5.96 68 9.92 68 14 68 C14 45.89 14 23.78 14 1 C10.04 1 6.08 1 2 1 Z " fill="#107228" transform="translate(615,700)"/>
<path d="M0 0 C4.95 0 9.9 0 15 0 C15 23.1 15 46.2 15 70 C10.05 70 5.1 70 0 70 C0 46.9 0 23.8 0 0 Z M1 1 C1 23.11 1 45.22 1 68 C4.96 68 8.92 68 13 68 C13 45.89 13 23.78 13 1 C9.04 1 5.08 1 1 1 Z " fill="#026E20" transform="translate(954,700)"/>
<path d="M0 0 C4.95 0 9.9 0 15 0 C15 9.24 15 18.48 15 28 C14.67 28 14.34 28 14 28 C14 19.09 14 10.18 14 1 C10.04 1 6.08 1 2 1 C2 23.11 2 45.22 2 68 C5.96 68 9.92 68 14 68 C14 58.76 14 49.52 14 40 C14.33 40 14.66 40 15 40 C15 49.9 15 59.8 15 70 C10.05 70 5.1 70 0 70 C0 46.9 0 23.8 0 0 Z " fill="#0C7228" transform="translate(535,700)"/>
<path d="M0 0 C0.99 0.495 0.99 0.495 2 1 C2 23.11 2 45.22 2 68 C15.86 68 29.72 68 44 68 C44 68.66 44 69.32 44 70 C29.48 70 14.96 70 0 70 C0 46.9 0 23.8 0 0 Z " fill="#1E8141" transform="translate(1069,700)"/>
<path d="M0 0 C4.29 0 8.58 0 13 0 C13 0.33 13 0.66 13 1 C9.37 1 5.74 1 2 1 C2 23.11 2 45.22 2 68 C5.63 68 9.26 68 13 68 C13 53.81 13 39.62 13 25 C13.33 25 13.66 25 14 25 C14.33 39.85 14.66 54.7 15 70 C10.05 70 5.1 70 0 70 C0 46.9 0 23.8 0 0 Z " fill="#137B34" transform="translate(425,700)"/>
<path d="M0 0 C0.33 0 0.66 0 1 0 C1 22.11 1 44.22 1 67 C14.2 67 27.4 67 41 67 C41 63.7 41 60.4 41 57 C32.09 57 23.18 57 14 57 C14 56.67 14 56.34 14 56 C23.57 56 33.14 56 43 56 C43 60.29 43 64.58 43 69 C28.81 69 14.62 69 0 69 C0 46.23 0 23.46 0 0 Z " fill="#0E7C39" transform="translate(708,701)"/>
<path d="M0 0 C10.56 0 21.12 0 32 0 C32 0.33 32 0.66 32 1 C22.1 1 12.2 1 2 1 C2 23.11 2 45.22 2 68 C6.29 68 10.58 68 15 68 C15 68.66 15 69.32 15 70 C10.05 70 5.1 70 0 70 C0 46.9 0 23.8 0 0 Z " fill="#036D20" transform="translate(1129,700)"/>
<path d="M0 0 C12.71835866 1.29870564 28.49266912 3.24633456 40 9 C39.67 10.65 39.34 12.3 39 14 C38.34 14 37.68 14 37 14 C38.32 14.99 39.64 15.98 41 17 C36.21440534 16.30098055 32.05526836 14.49459337 27.63671875 12.62109375 C26.84473587 12.28956802 26.05275299 11.9580423 25.23677063 11.61647034 C22.71850164 10.5611488 20.2029905 9.49942502 17.6875 8.4375 C15.97608969 7.71897637 14.26450302 7.00087265 12.55273438 6.28320312 C8.36643081 4.52699356 4.18258814 2.7650389 0 1 C0 0.67 0 0.34 0 0 Z " fill="#05772E" transform="translate(130,499)"/>
<path d="M0 0 C0.92727905 0.40726318 0.92727905 0.40726318 1.87329102 0.82275391 C13.84338667 6.07293229 25.8154884 11.26478696 38 16 C37.01 17.65 36.02 19.3 35 21 C35.78375 21.226875 36.5675 21.45375 37.375 21.6875 C42.12301625 23.40660933 46.52102552 25.68084721 51 28 C48 29 48 29 45.74194336 28.18652344 C44.86675049 27.74856445 43.99155762 27.31060547 43.08984375 26.859375 C42.10806152 26.37082031 41.1262793 25.88226562 40.11474609 25.37890625 C39.06625488 24.84136719 38.01776367 24.30382812 36.9375 23.75 C35.3299585 22.93595703 35.3299585 22.93595703 33.68994141 22.10546875 C24.15520347 17.21105511 14.99878695 11.81324573 6 6 C5.39961914 5.62746094 4.79923828 5.25492188 4.18066406 4.87109375 C2.75212996 3.96710603 1.37014265 2.99025886 0 2 C0 1.34 0 0.68 0 0 Z " fill="#077228" transform="translate(206,541)"/>
<path d="M0 0 C9.9 0 19.8 0 30 0 C30 8 30 8 29 13 C14.81 13 0.62 13 -14 13 C-14 12.67 -14 12.34 -14 12 C-0.14 12 13.72 12 28 12 C28 8.7 28 5.4 28 2 C19.09 2 10.18 2 1 2 C0.67 1.34 0.34 0.68 0 0 Z " fill="#15803F" transform="translate(664,757)"/>
<path d="M0 0 C5.09882455 1.5280389 9.65665659 3.71036856 14.375 6.125 C15.11105469 6.49753906 15.84710937 6.87007812 16.60546875 7.25390625 C18.40550358 8.1656122 20.20301402 9.08229932 22 10 C22 10.33 22 10.66 22 11 C14.99835237 10.69155737 8.26942533 9.5528542 1.4375 8.0625 C0.63973145 7.89266602 -0.15803711 7.72283203 -0.97998047 7.54785156 C-6.75399938 6.24600062 -6.75399938 6.24600062 -9 4 C-6.36 4.33 -3.72 4.66 -1 5 C-0.67 3.35 -0.34 1.7 0 0 Z " fill="#08661F" transform="translate(1415,578)"/>
<path d="M0 0 C0.33 0 0.66 0 1 0 C1 4.29 1 8.58 1 13 C-7.91 13 -16.82 13 -26 13 C-26 18.28 -26 23.56 -26 29 C-26.66 28.67 -27.32 28.34 -28 28 C-28.02684679 25.35409986 -28.04676357 22.70846904 -28.0625 20.0625 C-28.07087891 19.30775391 -28.07925781 18.55300781 -28.08789062 17.77539062 C-28.09652441 15.85005687 -28.05224333 13.92464419 -28 12 C-27 11 -27 11 -24.49975586 10.88647461 C-23.41573486 10.89171143 -22.33171387 10.89694824 -21.21484375 10.90234375 C-19.46010742 10.90717773 -19.46010742 10.90717773 -17.66992188 10.91210938 C-15.82237305 10.92467773 -15.82237305 10.92467773 -13.9375 10.9375 C-12.08415039 10.94426758 -12.08415039 10.94426758 -10.19335938 10.95117188 C-7.12885883 10.96300392 -4.06445279 10.97948827 -1 11 C-1.01160156 10.28972656 -1.02320313 9.57945312 -1.03515625 8.84765625 C-1.04417969 7.92855469 -1.05320312 7.00945313 -1.0625 6.0625 C-1.07410156 5.14597656 -1.08570313 4.22945312 -1.09765625 3.28515625 C-1 1 -1 1 0 0 Z " fill="#0C7932" transform="translate(272,700)"/>
<path d="M0 0 C9.74387005 1.1254318 18.63874032 3.06927129 28 6 C27.01 6.99 26.02 7.98 25 9 C25.66 9.66 26.32 10.32 27 11 C20.88106577 10.43343202 15.67636193 7.89348871 10.125 5.4375 C9.15046875 5.01275391 8.1759375 4.58800781 7.171875 4.15039062 C4.77855235 3.10624496 2.38811986 2.05597786 0 1 C0 0.67 0 0.34 0 0 Z " fill="#08772E" transform="translate(130,499)"/>
<path d="M0 0 C0.33 0.66 0.66 1.32 1 2 C-0.33547456 4.74446147 -1.73407771 7.35652763 -3.25 10 C-3.92095703 11.18940186 -3.92095703 11.18940186 -4.60546875 12.40283203 C-8.3997875 19.0757354 -12.3698341 25.6392201 -16.41894531 32.16015625 C-16.85819336 32.86785156 -17.29744141 33.57554687 -17.75 34.3046875 C-18.13671875 34.92327637 -18.5234375 35.54186523 -18.921875 36.17919922 C-20.04627634 38.07815419 -21.03596032 40.0155024 -22 42 C-22.66 42 -23.32 42 -24 42 C-24.33 42.99 -24.66 43.98 -25 45 C-25.33 44.34 -25.66 43.68 -26 43 C-25.12646484 41.19433594 -25.12646484 41.19433594 -23.7109375 38.984375 C-23.18717529 38.15510498 -22.66341309 37.32583496 -22.1237793 36.47143555 C-21.54668213 35.57336182 -20.96958496 34.67528809 -20.375 33.75 C-19.1789458 31.85675837 -17.98500488 29.96218034 -16.79296875 28.06640625 C-16.17083496 27.07785645 -15.54870117 26.08930664 -14.90771484 25.07080078 C-11.7522524 19.99153195 -8.71726831 14.84242589 -5.6875 9.6875 C-5.1188623 8.72102539 -4.55022461 7.75455078 -3.96435547 6.75878906 C-2.64102323 4.50695352 -1.31944276 2.25411604 0 0 Z " fill="#0D6F1E" transform="translate(249,423)"/>
<path d="M0 0 C0.33 0 0.66 0 1 0 C1.99263429 9.35912329 2.10731538 18.60394198 2 28 C5.96 28 9.92 28 14 28 C14.33 28.66 14.66 29.32 15 30 C10.05 30 5.1 30 0 30 C0 20.1 0 10.2 0 0 Z " fill="#26884A" transform="translate(580,740)"/>
<path d="M0 0 C3.75894369 1.35833028 6.80345165 3.06797659 10.0625 5.375 C10.89910156 5.96023438 11.73570313 6.54546875 12.59765625 7.1484375 C14.93567246 8.95042073 16.96487911 10.8661781 19 13 C6.33029613 9.92482916 6.33029613 9.92482916 1 8 C1.66 6.68 2.32 5.36 3 4 C2.01 2.68 1.02 1.36 0 0 Z " fill="#0B732A" transform="translate(1386,547)"/>
<path d="M0 0 C2.65221666 3.97832498 4.61873081 8.19619269 6.6875 12.5 C7.11611328 13.36753906 7.54472656 14.23507813 7.98632812 15.12890625 C8.38658203 15.96292969 8.78683594 16.79695313 9.19921875 17.65625 C9.56877686 18.41744141 9.93833496 19.17863281 10.3190918 19.96289062 C11 22 11 22 10 25 C8.82845707 22.71070947 7.66261926 20.41881638 6.5 18.125 C6.16613281 17.47402344 5.83226562 16.82304687 5.48828125 16.15234375 C3 11.2265625 3 11.2265625 3 9 C1.05396726 8.40929986 1.05396726 8.40929986 -1 8 C-2.46569415 9.46569415 -3.14978184 11.20762116 -4.0625 13.0625 C-4.60583984 14.16271484 -4.60583984 14.16271484 -5.16015625 15.28515625 C-5.43730469 15.85105469 -5.71445312 16.41695312 -6 17 C-7 14 -7 14 -5.56640625 10.64453125 C-4.90851193 9.3619696 -4.24010257 8.08475943 -3.5625 6.8125 C-3.22412109 6.15830078 -2.88574219 5.50410156 -2.53710938 4.83007812 C-1.70030902 3.21540701 -0.85130254 1.60707237 0 0 Z " fill="#097124" transform="translate(582,218)"/>
<path d="M0 0 C2 2 2 2 2.1953125 5.9140625 C2.18200376 7.48449351 2.15813602 9.05486221 2.125 10.625 C2.11597656 11.42679688 2.10695313 12.22859375 2.09765625 13.0546875 C2.07406223 15.03658523 2.03819065 17.01832981 2 19 C-2.29 19 -6.58 19 -11 19 C-11 18.34 -11 17.68 -11 17 C-7.37 17 -3.74 17 0 17 C0 11.39 0 5.78 0 0 Z " fill="#0A762F" transform="translate(484,751)"/>
<path d="M0 0 C3.43301849 3.24744993 5.51567521 5.85945868 8 10 C1.73 10 -4.54 10 -11 10 C-10.67 9.01 -10.34 8.02 -10 7 C-3.07 7.495 -3.07 7.495 4 8 C3.01 6.576875 3.01 6.576875 2 5.125 C0 2 0 2 0 0 Z " fill="#147732" transform="translate(1180,760)"/>
<path d="M0 0 C1.485 0.99 1.485 0.99 3 2 C3 2.66 3 3.32 3 4 C2.34 4 1.68 4 1 4 C1 17.53 1 31.06 1 45 C0.67 45 0.34 45 0 45 C0 30.15 0 15.3 0 0 Z " fill="#E2F4EC" transform="translate(1003,725)"/>
<path d="M0 0 C0.33 0.66 0.66 1.32 1 2 C0.67 2.99 0.34 3.98 0 5 C3.96 5.33 7.92 5.66 12 6 C12.66 4.68 13.32 3.36 14 2 C13.67 3.98 13.34 5.96 13 8 C7.72 8 2.44 8 -3 8 C-1 1 -1 1 0 0 Z " fill="#11742F" transform="translate(1198,762)"/>
<path d="M0 0 C0.66 0.33 1.32 0.66 2 1 C2.33 2.65 2.66 4.3 3 6 C-2.28 6 -7.56 6 -13 6 C-13.33 4.35 -13.66 2.7 -14 1 C-13.34 1.66 -12.68 2.32 -12 3 C-8.87803664 3.46486718 -8.87803664 3.46486718 -5.375 3.625 C-4.18648437 3.69976563 -2.99796875 3.77453125 -1.7734375 3.8515625 C-0.85820313 3.90054688 0.05703125 3.94953125 1 4 C0.67 2.68 0.34 1.36 0 0 Z " fill="#107631" transform="translate(1262,764)"/>
<path d="M0 0 C0.66 0.33 1.32 0.66 2 1 C2 2.65 2 4.3 2 6 C1.01 6 0.02 6 -1 6 C-1.18175781 6.58007812 -1.36351562 7.16015625 -1.55078125 7.7578125 C-3.0418106 12.39147293 -4.68333576 16.69762355 -7 21 C-8.17189558 17.48431326 -7.83725505 17.0008148 -6.34765625 13.76953125 C-5.98349609 12.96708984 -5.61933594 12.16464844 -5.24414062 11.33789062 C-4.65922852 10.08782227 -4.65922852 10.08782227 -4.0625 8.8125 C-3.67642578 7.96751953 -3.29035156 7.12253906 -2.89257812 6.25195312 C-1.93699299 4.16382265 -0.97256217 2.08026396 0 0 Z " fill="#0A6F21" transform="translate(1112,284)"/>
<path d="M0 0 C5.28 2.31 10.56 4.62 16 7 C15.01 7.99 14.02 8.98 13 10 C12.22914063 9.50628906 11.45828125 9.01257813 10.6640625 8.50390625 C9.15972656 7.54291016 9.15972656 7.54291016 7.625 6.5625 C6.62726563 5.92441406 5.62953125 5.28632812 4.6015625 4.62890625 C2.14169479 3.03100789 2.14169479 3.03100789 0 2 C0 1.34 0 0.68 0 0 Z " fill="#126F2D" transform="translate(206,541)"/>
<path d="M0 0 C3.96 1.98 3.96 1.98 8 4 C7.01 4.33 6.02 4.66 5 5 C4.34 4.67 3.68 4.34 3 4 C2.67 7.3 2.34 10.6 2 14 C1.34 14 0.68 14 0 14 C0 9.38 0 4.76 0 0 Z " fill="#227B3C" transform="translate(1332,752)"/>
<path d="M0 0 C4.23429756 1.31061591 8.07407404 2.94356259 12 5 C10.1875 6.0625 10.1875 6.0625 8 7 C5.28368454 6.09456151 2.65228812 5.07525194 0 4 C0 2.68 0 1.36 0 0 Z " fill="#0B8947" transform="translate(1416,580)"/>
<path d="M0 0 C1.5843317 0.08768248 3.16753567 0.19587329 4.75 0.3125 C6.07257813 0.39951172 6.07257813 0.39951172 7.421875 0.48828125 C10.35917614 1.07129102 11.70755336 2.12783524 14 4 C15.98014432 4.72351427 17.97821315 5.40265389 20 6 C15.86175948 7.75529482 12.30717946 6.09000877 8.3125 4.6875 C7.62349609 4.46126953 6.93449219 4.23503906 6.22460938 4.00195312 C1.1322151 2.2644302 1.1322151 2.2644302 0 0 Z " fill="#067024" transform="translate(310,591)"/>
<path d="M0 0 C0.66 0.33 1.32 0.66 2 1 C1.67 2.65 1.34 4.3 1 6 C3.31 6.33 5.62 6.66 8 7 C8 7.33 8 7.66 8 8 C-3.52164009 7.22095672 -3.52164009 7.22095672 -9 5 C-5.94736336 4.01879536 -4.05263664 4.01879536 -1 5 C-0.67 3.35 -0.34 1.7 0 0 Z " fill="#0C752C" transform="translate(1415,578)"/>
<path d="M0 0 C0.33 0.66 0.66 1.32 1 2 C-4.97995357 2.930215 -10.97099313 3.48758893 -17 4 C-16 2 -16 2 -14.1796875 1.3671875 C-9.33738332 0.3330683 -4.95047466 -0.2106585 0 0 Z " fill="#117E28" transform="translate(758,525)"/>
<path d="M0 0 C0 3.93851312 -1.54965972 6.07844043 -4 9 C-6.57545604 11.44766624 -9.25358444 13.74687267 -12 16 C-12.66 15.67 -13.32 15.34 -14 15 C-13.36384766 14.38125 -13.36384766 14.38125 -12.71484375 13.75 C-8.24761277 9.35149565 -4.0721472 4.76527863 0 0 Z " fill="#147918" transform="translate(550,481)"/>
<path d="M0 0 C2.29295236 0.28138058 4.58435456 0.5754186 6.875 0.875 C8.78925781 1.11863281 8.78925781 1.11863281 10.7421875 1.3671875 C14 2 14 2 16 4 C15.67 4.66 15.34 5.32 15 6 C11.33827525 5.37321829 8.1181005 4.35548154 4.6875 2.9375 C3.36298828 2.39416016 3.36298828 2.39416016 2.01171875 1.83984375 C1.34785156 1.56269531 0.68398437 1.28554688 0 1 C0 0.67 0 0.34 0 0 Z " fill="#0C6A24" transform="translate(130,499)"/>
<path d="M0 0 C1 3 1 3 1 5 C0.34 5 -0.32 5 -1 5 C-1.27585937 5.71542969 -1.55171875 6.43085938 -1.8359375 7.16796875 C-2.98248522 9.95738855 -4.26227115 12.62290358 -5.625 15.3125 C-6.29402344 16.63701172 -6.29402344 16.63701172 -6.9765625 17.98828125 C-7.48316406 18.98408203 -7.48316406 18.98408203 -8 20 C-9 17 -9 17 -8.28735352 15.09887695 C-7.71392212 14.05413208 -7.71392212 14.05413208 -7.12890625 12.98828125 C-6.51499023 11.85229492 -6.51499023 11.85229492 -5.88867188 10.69335938 C-5.45103516 9.90767578 -5.01339844 9.12199219 -4.5625 8.3125 C-4.12873047 7.51521484 -3.69496094 6.71792969 -3.24804688 5.89648438 C-2.17425237 3.92589446 -1.09135818 1.96090073 0 0 Z " fill="#0E7221" transform="translate(1092,328)"/>
<path d="M0 0 C2.31966166 2.84685749 3.91581154 5.4763875 5 9 C4.67 9.99 4.34 10.98 4 12 C3.01 9.69 2.02 7.38 1 5 C0.896875 5.639375 0.79375 6.27875 0.6875 6.9375 C0.460625 7.618125 0.23375 8.29875 0 9 C-0.99 9.33 -1.98 9.66 -3 10 C-2.39009109 6.44219804 -1.4216319 3.3171411 0 0 Z " fill="#096E22" transform="translate(422,283)"/>
<path d="M0 0 C0 4.05164344 -1.61357669 5.79537442 -4 9 C-7.45245824 11.30163882 -8.94738713 11.34490322 -13 11 C-13.66 10.34 -14.32 9.68 -15 9 C-14.01 9.185625 -13.02 9.37125 -12 9.5625 C-8.94283777 9.61876679 -8.08586404 9.07660566 -5.75390625 6.99609375 C-3.75366205 4.71774073 -1.84022084 2.40901637 0 0 Z " fill="#076E1A" transform="translate(197,503)"/>
<path d="M0 0 C2.3125 -0.25 2.3125 -0.25 5 0 C6.8125 2 6.8125 2 8 4 C5.08517222 4.80967438 3.53886783 5.21845993 0.6875 4.0625 C0.130625 3.711875 -0.42625 3.36125 -1 3 C-0.67 2.01 -0.34 1.02 0 0 Z " fill="#04833D" transform="translate(232,554)"/>
<path d="M0 0 C0.66 0.33 1.32 0.66 2 1 C2.625 3.0625 2.625 3.0625 3 5 C1.35 5.33 -0.3 5.66 -2 6 C-2.66 4.68 -3.32 3.36 -4 2 C-2.125 0.9375 -2.125 0.9375 0 0 Z " fill="#05823E" transform="translate(158,505)"/>
<path d="M0 0 C2.5654594 2.5654594 2.54046087 4.47686668 3 8 C2.01 7.01 1.02 6.02 0 5 C-0.99 6.98 -1.98 8.96 -3 11 C-4 8 -4 8 -3.22265625 5.95703125 C-2.83980469 5.24933594 -2.45695312 4.54164063 -2.0625 3.8125 C-1.68222656 3.09707031 -1.30195312 2.38164062 -0.91015625 1.64453125 C-0.60980469 1.10183594 -0.30945312 0.55914062 0 0 Z " fill="#0E6E24" transform="translate(1251,347)"/>
<path d="M0 0 C2.625 0.375 2.625 0.375 5 1 C4.34 1.66 3.68 2.32 3 3 C4.65 3.99 6.3 4.98 8 6 C7.01 6.495 7.01 6.495 6 7 C4.0546875 6.00390625 4.0546875 6.00390625 1.875 4.5625 C1.15054688 4.08941406 0.42609375 3.61632812 -0.3203125 3.12890625 C-0.87460938 2.75636719 -1.42890625 2.38382813 -2 2 C-1.34 1.34 -0.68 0.68 0 0 Z " fill="#04691A" transform="translate(221,549)"/>
<path d="M0 0 C0 3.59857954 -0.95830515 5.09451118 -3 8 C-3.66 8 -4.32 8 -5 8 C-5.66 9.32 -6.32 10.64 -7 12 C-7 8.19654123 -5.86213669 7.22298985 -3.5 4.3125 C-2.8503125 3.50425781 -2.200625 2.69601562 -1.53125 1.86328125 C-1.0259375 1.24839844 -0.520625 0.63351562 0 0 Z " fill="#10741C" transform="translate(210,486)"/>
<path d="M0 0 C2.97 0 5.94 0 9 0 C6.23776722 2.76223278 3.79293383 2.57856291 0 3 C0 2.01 0 1.02 0 0 Z " fill="#05762C" transform="translate(953,608)"/>
<path d="M0 0 C3.13759973 0.82175231 4.70255875 1.70255875 7 4 C3.37 3.67 -0.26 3.34 -4 3 C-2.68 2.01 -1.36 1.02 0 0 Z " fill="#DEF3EA" transform="translate(1185,482)"/>
<path d="M0 0 C3.09162264 1.38589981 4.49183541 2.49183541 7 5 C3.7 4.01 0.4 3.02 -3 2 C-2.01 1.34 -1.02 0.68 0 0 Z " fill="#0A6321" transform="translate(1398,555)"/>
<path d="M0 0 C5.75 0.75 5.75 0.75 8 3 C5.6875 3.625 5.6875 3.625 3 4 C2.01 3.34 1.02 2.68 0 2 C0 1.34 0 0.68 0 0 Z " fill="#128645" transform="translate(1390,553)"/>
<path d="M0 0 C2.475 0.99 2.475 0.99 5 2 C5 2.99 5 3.98 5 5 C3.35 4.67 1.7 4.34 0 4 C0 2.68 0 1.36 0 0 Z " fill="#01833F" transform="translate(1416,580)"/>
<path d="M0 0 C2.66975522 0.94226655 3.98615798 1.98615798 6 4 C2.7 3.34 -0.6 2.68 -4 2 C-2.68 1.34 -1.36 0.68 0 0 Z " fill="#DFF2EA" transform="translate(1315,514)"/>
</svg>
